<svg xmlns="http://www.w3.org/2000/svg" viewBox="0 0 500 500"><defs><style>.cls-1{fill:#fff5dc;}.cls-2{fill:#c7b4a3;}.cls-3{fill:#d48524;}.cls-4{fill:#cc6c23;}.cls-5{fill:#943c1e;}.cls-6{fill:#733010;}.cls-7{fill:#fbbb3b;}.cls-8{fill:#fec;}.cls-9{fill:#ba5a3a;}.cls-10{fill:#ffcf85;}.cls-11{opacity:0.34;}</style></defs><title>hotdog-roundedsquare</title><g id="Layer_2" data-name="Layer 2"><g id="OBJECTS"><rect class="cls-1" width="500" height="500" rx="33.13" ry="33.13"/><path class="cls-2" d="M108.23,446.15a750.34,750.34,0,0,0,273.93-13c20.27-4.82,41-10.89,55.89-23.39,2.49-2.1,4.93-4.69,4.69-7.64-.2-2.41-2.15-4.44-4.12-6.2C415.18,375,378.72,369,344.68,365.56q-53.25-5.42-107-6.37c-42.57-.75-99.6.65-137.47,19.91C58.11,400.52,52.16,438.42,108.23,446.15Z"/><path class="cls-3" d="M453.09,215.91c-.4,25-11.45,48.07-25.11,67.11-53.13,74-132.47,118.08-209.61,149.1-45,18.1-114.36,13.41-140.6-42.6-8.2-17.5-8.2-33.59-3.16-47.68,7.54-21.06,26.33-37.63,45.82-47.69,51.42-26.54,109.08-38.24,155.6-74.89,24.34-19.17,45.43-42.06,71.5-58.37C384.84,137.55,454,157.59,453.09,215.91Z"/><path class="cls-4" d="M442.27,258.72c-53.13,74-132.47,118.08-209.61,149.1-45,18.1-114.36,13.41-140.6-42.6-8-17-8.18-32.66-3.57-46.45a72.87,72.87,0,0,0-13.88,23.07c-5,14.09-5,30.18,3.16,47.68,26.25,56,95.61,60.69,140.6,42.6C295.51,401.1,374.85,357.07,428,283a156.37,156.37,0,0,0,14.76-25Z"/><path class="cls-5" d="M194.81,380.41c23.83-14.62,51.68-22.81,76-36.37,43.49-24.21,83.76-55.49,122.23-89.18,24.59-21.54,50.35-46.18,57.75-82.74,7.05-34.84-22.41-50.7-49.2-38.56-19.51,8.84-33.54,28.37-48.45,45.4-41.94,47.9-95.24,79-149.61,103.69C179,293.79,151,306.49,125.64,314.8c-26.88,8.8-61.13,4.41-70.77,37.64C48,376,61.75,403,84.23,412.27c38.09,15.73,75.74-8.94,106.4-29.21Q192.7,381.7,194.81,380.41Z"/><path class="cls-6" d="M449,147.42a53.8,53.8,0,0,1-.91,6.34c-7.4,36.55-33.16,61.2-57.75,82.74-38.47,33.69-78.74,65-122.23,89.18-24.35,13.56-52.2,21.75-76,36.37q-2.11,1.29-4.18,2.66c-28.21,18.65-62.34,41-97.28,32.2-1.49-2.68-3.29-5.21-4.51-8A69,69,0,0,1,82.43,376c-.39-1.81-3-1-3,.58a36.2,36.2,0,0,0,5,18.45c-1-.35-1.93-.7-2.9-1.1a46,46,0,0,1-5.25-2.59c-.2-1.63-.45-3.26-.58-4.9-.32-4,.2-7.91-.16-11.88A2,2,0,0,0,72,373.33c-2.53,3.1-3.8,7.81-3.61,12.41a53.42,53.42,0,0,1-15.24-22.67c-.87,20.56,11.92,41.3,31.08,49.21,38.09,15.73,75.74-8.94,106.4-29.21q2.07-1.37,4.18-2.66c23.83-14.62,51.68-22.81,76-36.37,43.49-24.21,83.76-55.49,122.23-89.18,24.59-21.54,50.35-46.18,57.75-82.74C452.81,162.32,451.9,154,449,147.42Z"/><path class="cls-3" d="M154,362.15c14.79-12.61,32.23-21.34,49.09-30.26A1077.08,1077.08,0,0,0,406.33,192c7.67-6.67,15.78-13.7,25.36-14.85,22.69-2.71,22.76,24.65,18.69,42.58-3.83,16.88-14.81,30-25.7,41.89C366.45,325.13,298.33,376.4,224.28,411.5c-21.39,10.14-47.58,25.7-71.58,20.44-24.53-5.38-29.37-34.42-13-55A106,106,0,0,1,154,362.15Z"/><path class="cls-7" d="M390.27,158.18q-.73-.19-1.48-.32c-2.14-.36-4.66-.18-6,1.53-1.77,2.27-.18,5.78,2.25,7.33s5.42,1.85,8.14,2.82a14.28,14.28,0,0,1,9,8.86c2.9,9.49-5.92,21-16.09,16.84-3.16-1.3-5.54-4.22-7.89-6.56-6.13-6.1-14.69-13.72-24.06-9.58-7,3.11-8.92,11.18-6.79,18.08,1.45,4.69,4.87,8.36,8.26,11.73,2.82,2.81,6,5.2,8.31,8.5a13.5,13.5,0,0,1,3,10.6q-8.18,7.63-14.18.76c-14.61-11.91-35.85-29.13-53.55-11-5.86,6-8.54,14.63-5.18,22.53,2.83,6.65,19,18.12,4.85,24.12-6.75,2.87-14.09-4.32-17.89-9-5.4-6.7-11.25-16.14-21.48-13.84-8.77,2-10.77,11.34-8.32,18.93,1.3,4,3.68,7.14,6.31,10.42,1.93,2.41,5,5,6.17,7.87,3.77,9.09-1,14.51-9,15.23-16,1.43-23.37-18.64-37-23.42-6-2.1-12.87-1.16-16.46,4.61-4.62,7.43,0,16.83,5,22.74,3.66,4.37,8.1,5.69,8.78,11.69a18.16,18.16,0,0,1-5,14.1,11.29,11.29,0,0,1-3.36,2.49,14.79,14.79,0,0,1-6.76.89c-14.59-.6-20.58-6.77-30.11-16.35-5.8-5.83-16.67-11.73-23.94-4.8s-3.13,16.86,1.73,23.45c2,2.68,4.5,5,6.27,7.86,5.86,9.39-1.49,15.29-10.23,9.27-5.48-3.78-9.18-9.78-14.67-13.69-9.22-6.58-21.73-9-32.89-9.19-11.31-.22-17.34,13.09-13.5,22.83A9.33,9.33,0,0,0,87,351.78c2.14.94,4.63.6,6.89,0a6.74,6.74,0,0,0,3.69-2c1.77-2.28.43-5.55.53-8.44a8.29,8.29,0,0,1,4.15-6.82c4.8-2.68,11.18.23,15.4,2.71,8.92,5.25,12.44,13.17,19.57,20,3.84,3.68,9,6.35,14.28,6.07a9,9,0,0,0,5.08-1.67c3.16-2.46,7.94-9.71,8.58-13.81.92-5.84-2-12-5.62-16.4-1.88-2.3-4.11-4.31-5.91-6.68-1.3-1.72-4.41-5.5-4.14-7.89,1-9.41,6.76-6.31,10.37-4.61,5.67,2.68,9.4,9.67,13.15,14.42,6.25,7.91,13.63,14.48,24.37,14.08,9.86-.37,20.54-6.51,25.47-15.14,9.3-16.26-11.59-25-13.85-39.06-1-6.35,6.81-7.47,11.49-5.92,5.73,1.9,9.73,8.73,14.24,12.44,7.83,6.46,17.68,10.51,27.58,6.26,7.93-3.4,12.29-11.1,9.95-19.55s-11.9-12.93-13.87-21.55c-1.08-4.71.73-11.2,6.62-9.3,4.89,1.58,8.38,10,11.59,13.61,6.45,7.2,17.19,12.76,27.1,10.82,9-1.76,12.38-10,9.37-18.21-1.87-5.13-6.11-8.63-9.22-12.95-7.08-9.84-.15-21.92,11.54-23.45,17.13-2.25,25.33,14.57,38.66,20.94,7.63,3.65,16.57,1.31,19.88-6.93,6.92-17.26-17.38-28-19.55-44.13a2,2,0,0,1,.15-1.41,1.8,1.8,0,0,1,1-.62c7.9-2.41,13.56,4.11,18.57,8.79,4.27,4,9,7.46,15,7.7,9.7.39,17.87-8.95,19-18.08C409.58,174.21,401,161,390.27,158.18Z"/><path class="cls-8" d="M360.59,180.45c-1.69-2.49-6.35-1.19-8.28.38a7.13,7.13,0,0,0-2.09,7.75.47.47,0,0,0,.91-.18,6.46,6.46,0,0,1,2.5-6.12,5.39,5.39,0,0,1,3.44-1,14.65,14.65,0,0,0,2.92.38A.78.78,0,0,0,360.59,180.45Z"/><path class="cls-8" d="M367.61,180.56a2,2,0,0,0-1.19,3.55,1.87,1.87,0,0,1,.21.3,1.4,1.4,0,0,0,2.4-.14,1.86,1.86,0,0,1,.17-.33A2,2,0,0,0,367.61,180.56Z"/><path class="cls-8" d="M371.19,226.15a.93.93,0,0,0-1-.36c-1.21.48-1.34,1.24-2,2.32a9.8,9.8,0,0,1-3.5,3.53c-3,1.81-6.46,1.82-9.79,1a.75.75,0,0,0-.65,1.29c3.16,2.65,7.51,2.44,11.08.74C367.71,233.56,373.34,229.29,371.19,226.15Z"/><path class="cls-8" d="M371.27,220.51a1.12,1.12,0,0,0,.13,2.24A1.12,1.12,0,0,0,371.27,220.51Z"/><path class="cls-8" d="M395.51,161.93c-2.24-1.32-5.42-2.92-8.09-2.51a.38.38,0,0,0-.23.66c1.9,1.54,4.48,2.28,6.57,3.55a29,29,0,0,1,3.57,2.54,4.78,4.78,0,0,0,2.7,1.53.61.61,0,0,0,.72-.62C400.49,164.67,397.41,163.06,395.51,161.93Z"/><path class="cls-8" d="M312.14,256.88c-.28-1.21-2.15-1-2.37.13-.73,3.8-1.28,7.15-5,9.22-3.44,1.9-7.35,1.13-10.71-.54a.56.56,0,0,0-.62.91C300.26,273.78,314.49,266.92,312.14,256.88Z"/><path class="cls-8" d="M265.86,275.43a1,1,0,0,0-1.4,1.21c1.24,2.93,2.63,5.13,2.11,8.48a12,12,0,0,1-5.16,7.77.84.84,0,0,0,.73,1.49C269,292.22,272.52,279.78,265.86,275.43Z"/><path class="cls-8" d="M263.59,242.35c-1.34-1.45-4.52-.17-6,.54a11.61,11.61,0,0,0-2.75,1.89c-1.1,1-1.28,1.88-2,3.13-.16.3.28.61.5.34a14.57,14.57,0,0,1,5.24-3.65c1.54-.65,3.82-.37,5-1.56A.49.49,0,0,0,263.59,242.35Z"/><path class="cls-8" d="M219.68,316c-.33-1.19-1.91-.87-2.23.13-1.39,4.46-2.33,7.68-6.45,10.51-3.47,2.38-7.58,3.26-11.2,5.31-.49.28-.18,1,.33,1A24.84,24.84,0,0,0,215,327C217.85,324.44,220.82,320,219.68,316Z"/><path class="cls-8" d="M220.47,311.8l.05.35a1.09,1.09,0,0,0,2.18-.12v-.35C222.76,310.23,220.25,310.36,220.47,311.8Z"/><path class="cls-8" d="M152.32,305.14c-2.42,0-4.61,3-5.64,4.91a11.68,11.68,0,0,0-1.16,7.85.46.46,0,0,0,.88,0,15.44,15.44,0,0,1,2-6.9,12.77,12.77,0,0,1,2.35-2.87,8.41,8.41,0,0,0,2.08-2.09A.59.59,0,0,0,152.32,305.14Z"/><path class="cls-8" d="M157.61,350.15c-1.16.69-1.92,1.8-3.1,2.47a9.29,9.29,0,0,1-7.29.48c-3.91-1.22-6.89-4.26-9.92-6.86-.5-.43-1.36.23-.91.79,3.39,4.21,7.7,8.6,13.44,8.88,3.37.17,8.59-1.23,8.83-5.23C158.69,350.13,158,349.92,157.61,350.15Z"/><path class="cls-6" d="M98.15,379.54c-3.91-3.38-10-4.95-14.71-6.92-1.14-.48-2.5,1.12-1.32,1.93,4.34,3,9.92,6.79,15.38,6.83A1.07,1.07,0,0,0,98.15,379.54Z"/><path class="cls-6" d="M84.81,355.53c-2,1.35-3,3.58-4.17,5.63a83.49,83.49,0,0,0-3.82,7.66c-.41,1,.91,2.06,1.61,1.1,1.67-2.25,3.16-4.58,4.6-7,1.29-2.15,2.75-4.29,2.94-6.84C86,355.53,85.23,355.25,84.81,355.53Z"/><path class="cls-6" d="M65.66,353a2.83,2.83,0,0,0-3.24-.23,2,2,0,0,0-1.13,1.66,2.69,2.69,0,0,0,.83,2.55c4.7,3.43,8,7.62,11.72,12,.69.81,2.46.6,2.25-.75C75.13,362,70.66,356.5,65.66,353Z"/><path class="cls-6" d="M71.46,368.69a33.56,33.56,0,0,1-7.62-.25c-1.9-.3-3.89-1.42-5.65-.25a1.22,1.22,0,0,0-.47,1.36c.62,2.43,4,2.78,6.1,3a17.24,17.24,0,0,0,8.19-1A1.48,1.48,0,0,0,71.46,368.69Z"/><path class="cls-9" d="M418.76,136.76c-3.4.63-7.13,4.82-4.14,8.27,3.59,4.14,9.28,4.63,11,10.58s-3.2,10.23-7.23,13.85c-3,2.73.8,6.55,3.89,5.89,8.74-1.88,13.21-11.95,12.81-20.13C434.69,147.77,427.67,135.11,418.76,136.76Z"/><path class="cls-9" d="M337,233.74c-3.83,1.67-7,4.67-10.55,6.9s-7.25,4.16-10.15,7c-1.72,1.66-.09,4.83,2.22,4.61,4.06-.4,8.17-2.47,11.68-4.51,3.69-2.14,8.17-4.57,10.73-8C342.9,237,340.71,232.12,337,233.74Z"/><path class="cls-9" d="M359.53,218c-2.08-.45-3.91.64-5.41,2a18.65,18.65,0,0,1-1.84,1.42,7,7,0,0,0-1.84,2,1.79,1.79,0,0,0,1.41,2.93,6.87,6.87,0,0,0,2.36-.26c.81-.28,1.59-.67,2.41-.88,1.9-.48,4-1.16,4.82-3.15A2.87,2.87,0,0,0,359.53,218Z"/><path class="cls-9" d="M377,204.17a4.43,4.43,0,0,0-1.06.9c-.05.06-.7.66-.25.3-.32.25-.66.55-1,.79,0-.06-.44.2-.08,0a2.9,2.9,0,0,0-1.89,2.8,2.8,2.8,0,0,0,2.2,2.57,6,6,0,0,0,4.34-.8,5.18,5.18,0,0,0,2.47-4.22C381.83,204.06,378.83,203.14,377,204.17Z"/><path class="cls-9" d="M285.39,273.15a14.2,14.2,0,0,0-5.41,1.92c-1.54.8-3.25,2.21-3.63,4a2.42,2.42,0,0,0,1.82,2.83c1.53.36,3.26-.34,4.64-1a31,31,0,0,0,4.44-2.12C289.69,277.06,288.46,272.9,285.39,273.15Z"/><path class="cls-9" d="M236.5,301.71a23.54,23.54,0,0,0-5.57,2,48.23,48.23,0,0,0-5.44,2.31c-2,1.12-1.38,4.69.94,5,3.94.48,9.93-1.2,12.41-4.45C240.22,304.77,239.22,301.3,236.5,301.71Z"/><path class="cls-9" d="M208.28,314.28c-1.32-2.45-5.06-.65-6.8.19-3.27,1.58-7.27,3.3-9.53,6.23a2,2,0,0,0,1.55,3.21c3.64-.16,7.12-2.33,10.27-4C205.37,319,209.64,316.81,208.28,314.28Z"/><path class="cls-9" d="M125.7,352.37a51.57,51.57,0,0,0-10.13,3.33,31.34,31.34,0,0,1-11.12,1.84c-4.75.1-5.55,8-.66,8.51,8,.91,18.54,1.36,25.12-4.06C132.36,359.13,131.43,351.31,125.7,352.37Z"/><path class="cls-9" d="M174.26,336.79a9.08,9.08,0,0,0-4.27,1.66,2.6,2.6,0,0,0,1.57,4.72,8,8,0,0,0,3.78-.78,2.93,2.93,0,0,0,1.88-3.27A2.85,2.85,0,0,0,174.26,336.79Z"/><path class="cls-4" d="M254.26,363.53c-.33-1.37-1.89-1.78-3.07-1.52s-1.81,1.69-3.16,1.3c-1.57-.46-2.08-2.54-3-3.68-1.08-1.37-3.64-1.25-4,.75-.58,3.59,2.23,7.38,5.71,8.26C250.06,369.46,255.25,367.66,254.26,363.53Z"/><path class="cls-4" d="M301.07,339.61a19.21,19.21,0,0,0-2,1.36,1.47,1.47,0,0,1-1.24.14c-1-.37-1.3-1.9-1.62-2.74-.46-1.21-2.26-1.82-3.15-.64-2.15,2.85-.36,6.69,2.66,8.11a6.76,6.76,0,0,0,4.76.28c1.62-.5,3.61-1.78,3.8-3.61S303,338.77,301.07,339.61Z"/><path class="cls-4" d="M343.41,347.69a2.19,2.19,0,0,0-2.11-1.42,2.12,2.12,0,0,0-1.93,1.65c-.12.78-.41,2-1.49,1.37s-1.21-2.59-1.83-3.67a1.44,1.44,0,0,0-2.26-.16c-2,2.8.37,7,3.32,8a5,5,0,0,0,4.64-1C343.09,351.38,344.22,349.4,343.41,347.69Z"/><path class="cls-4" d="M232.53,405.27a1.65,1.65,0,0,0-2.82.16c-.21.45-.41,1.29-1.05,1.33-.88.06-1.46-1.32-1.68-2-.71-2.05-.38-4.27-1.74-6.08a1.44,1.44,0,0,0-2.62.87c-.09,3.62.46,8.93,4.26,10.61C229.84,411.51,234.45,408.65,232.53,405.27Z"/><path class="cls-4" d="M182.3,409.4c-3.32,2.08-4.68-2.87-5.34-5.24a1,1,0,0,0-1.91.11c-.69,2.9-.38,6.15,2.12,8.14,2,1.6,5.84,2.11,7.51-.26C185.82,410.52,184.17,408.23,182.3,409.4Z"/><path class="cls-4" d="M351.61,276.47c-1.24.35-2.39,1-3.64.25a5.79,5.79,0,0,1-2-3.3c-.14-1-1.63-1.54-2.12-.45a4.8,4.8,0,0,0-.51,3.76,6.28,6.28,0,0,0,2.53,3.24c2.21,1.47,5.88,1.62,7.72-.54A1.85,1.85,0,0,0,351.61,276.47Z"/><path class="cls-4" d="M378.77,304a.81.81,0,0,1-.63.46,1.32,1.32,0,0,1-1.33-.43,4.59,4.59,0,0,1-1.18-2.33,14.93,14.93,0,0,0-.47-1.42,5.78,5.78,0,0,0-.44-.77.74.74,0,0,0-1.46-.11c0,.06-.48.52-.58.7a5.3,5.3,0,0,0-.38,1.06,6.37,6.37,0,0,0-.05,2.89,6.31,6.31,0,0,0,2.77,4.29c2.68,1.58,7.39.66,8-2.8C383.57,302.85,380.15,301.88,378.77,304Z"/><path class="cls-4" d="M409.57,257.94c-.48.39-.74.78-1.39.68-.82-.12-1.5-1.1-2-1.71-1.12-1.53-1.91-3.62-3.59-4.61a1.18,1.18,0,0,0-1.58.51c-1.06,2.95,1.45,6.93,3.68,8.78s6.53,2.25,7.92-.87C413.48,258.91,411.37,256.5,409.57,257.94Z"/><path class="cls-10" d="M423.36,217.66a21.16,21.16,0,0,0-1.51-3.31c-.57-1-1.3-1.9-1.87-2.9-.76-1.32-3.2-.6-2.93,1,.41,2.34.5,4.62,1.35,6.9C419.57,222.47,424.48,220.85,423.36,217.66Z"/><path class="cls-10" d="M410.11,256.67a15.73,15.73,0,0,1-1.38-4.74c-.22-1.66,0-3.46-.64-5-.85-1.94-3.81-2.56-4.84-.36-1.8,3.86,1,8.8,3.4,11.8C407.91,259.94,411.12,258.82,410.11,256.67Z"/><path class="cls-10" d="M352.34,274c-.47-2.2-2-4.07-2.43-6.32-.3-1.61-2.66-2.09-3.06-.24-.67,3.12-.21,7.12,2.89,8.8C351.3,277.1,352.66,275.48,352.34,274Z"/><path class="cls-10" d="M376.35,291c-1.35-1.49-4.21.37-3.33,2.2a38.3,38.3,0,0,1,2.93,10c.63,3.54,5.88,3.47,5.73-.32A18.74,18.74,0,0,0,376.35,291Z"/><path class="cls-10" d="M339.43,337.74a2.11,2.11,0,0,0-3.42,1.11c-.71,3,1.15,5.78,2.5,8.28,1,1.78,4.05.73,3.78-1.26C341.92,343.07,341.74,339.72,339.43,337.74Z"/><path class="cls-10" d="M299.69,331.84c-1.14-1.89-4.58-.88-4.23,1.41.42,2.78,2,5.08,3.51,7.34a1.46,1.46,0,0,0,2.66-.88C301.37,337,301.13,334.22,299.69,331.84Z"/><path class="cls-10" d="M246.58,352.66c-1.6-.74-3.94.39-3.66,2.38a23.4,23.4,0,0,0,1.4,4.32c.47,1.4.63,2.78,1,4.2.5,2,3.46,2,4.34.32C251.48,360.37,250.38,354.42,246.58,352.66Z"/><path class="cls-10" d="M226.85,391.2a1.33,1.33,0,0,0-1.87.89c-.62,2.08.21,3.79.8,5.78a58.25,58.25,0,0,1,1.4,7.1c.3,1.84,3.1,2.39,3.5.27C231.44,401.2,231.29,393.14,226.85,391.2Z"/><path class="cls-10" d="M182.08,406.71a11.92,11.92,0,0,1-1-6c.08-2-3.21-2.26-3.55-.28a11.94,11.94,0,0,0,1.68,8.17C180.35,410.56,183.06,408.64,182.08,406.71Z"/><g class="cls-11"><path class="cls-2" d="M113.48,151.25h0a8.47,8.47,0,0,1-11.22-4.08L72.82,84A8.47,8.47,0,0,1,76.9,72.82h0A8.47,8.47,0,0,1,88.12,76.9L117.56,140A8.47,8.47,0,0,1,113.48,151.25Z"/><path class="cls-2" d="M186.13,84l-29.44,63.12a8.45,8.45,0,0,1-6.56,4.79l-.16,0-.6.05h-.76L148,152l-.16,0a8.45,8.45,0,0,1-6.56-4.79L111.86,84a8.47,8.47,0,0,1,4.08-11.22h0a8.47,8.47,0,0,1,11.22,4.08L149,123.71,170.82,76.9A8.47,8.47,0,0,1,182,72.82h0A8.47,8.47,0,0,1,186.13,84Z"/></g></g></g></svg>