<svg xmlns="http://www.w3.org/2000/svg" viewBox="0 0 400 323.58"><defs><style>.cls-1{fill:#c7b4a3;}.cls-2{fill:#d48524;}.cls-3{fill:#cc6c23;}.cls-4{fill:#943c1e;}.cls-5{fill:#733010;}.cls-6{fill:#fbbb3b;}.cls-7{fill:#fec;}.cls-8{fill:#ba5a3a;}.cls-9{fill:#ffcf85;}</style></defs><title>hotdog</title><g id="Layer_2" data-name="Layer 2"><g id="OBJECTS"><path class="cls-1" d="M55.13,316.63a750.34,750.34,0,0,0,273.93-13c20.27-4.82,41-10.89,55.89-23.39,2.49-2.1,4.93-4.69,4.69-7.64-.2-2.41-2.15-4.44-4.12-6.2-23.43-20.92-59.9-26.87-93.93-30.34q-53.25-5.42-107-6.37c-42.57-.75-99.6.65-137.47,19.91C5,271-.95,308.9,55.13,316.63Z"/><path class="cls-2" d="M400,86.39c-.4,25-11.45,48.07-25.11,67.11-53.13,74-132.47,118.08-209.61,149.1C120.28,320.7,50.91,316,24.67,260c-8.2-17.5-8.2-33.59-3.16-47.68,7.54-21.06,26.33-37.63,45.82-47.69,51.42-26.54,109.08-38.24,155.6-74.89,24.34-19.17,45.43-42.06,71.5-58.37C331.73,8,400.93,28.07,400,86.39Z"/><path class="cls-3" d="M389.17,129.2C336,203.25,256.7,247.27,179.56,278.3c-45,18.1-114.36,13.41-140.6-42.6-8-17-8.18-32.66-3.57-46.45a72.87,72.87,0,0,0-13.88,23.07c-5,14.09-5,30.18,3.16,47.68,26.25,56,95.61,60.69,140.6,42.6,77.14-31,156.48-75.05,209.61-149.1a156.37,156.37,0,0,0,14.76-25Z"/><path class="cls-4" d="M141.7,250.89c23.83-14.62,51.68-22.81,76-36.37C261.23,190.31,301.5,159,340,125.34c24.59-21.54,50.35-46.18,57.75-82.74C404.77,7.77,375.3-8.1,348.52,4,329,12.89,315,32.41,300.07,49.44c-41.94,47.9-95.24,79-149.61,103.69C125.91,164.27,97.93,177,72.53,185.28c-26.88,8.8-61.13,4.41-70.77,37.64-6.84,23.6,6.88,50.55,29.36,59.83,38.09,15.73,75.74-8.94,106.4-29.21Q139.59,252.18,141.7,250.89Z"/><path class="cls-5" d="M395.87,17.9a53.8,53.8,0,0,1-.91,6.34c-7.4,36.55-33.16,61.2-57.75,82.74-38.47,33.69-78.74,65-122.23,89.18-24.35,13.56-52.2,21.75-76,36.37q-2.11,1.29-4.18,2.66c-28.21,18.65-62.34,41-97.28,32.2-1.49-2.68-3.29-5.21-4.51-8a69,69,0,0,1-3.65-12.88c-.39-1.81-3-1-3,.58a36.2,36.2,0,0,0,5,18.45c-1-.35-1.93-.7-2.9-1.1a46,46,0,0,1-5.25-2.59c-.2-1.63-.45-3.26-.58-4.9-.32-4,.2-7.91-.16-11.88a2,2,0,0,0-3.47-1.21c-2.53,3.1-3.8,7.81-3.61,12.41A53.42,53.42,0,0,1,.05,233.54c-.87,20.56,11.92,41.3,31.08,49.21,38.09,15.73,75.74-8.94,106.4-29.21q2.07-1.37,4.18-2.66c23.83-14.62,51.68-22.81,76-36.37C261.23,190.31,301.5,159,340,125.34c24.59-21.54,50.35-46.18,57.75-82.74C399.7,32.8,398.79,24.49,395.87,17.9Z"/><path class="cls-2" d="M100.93,232.63C115.71,220,133.15,211.29,150,202.38A1077.08,1077.08,0,0,0,353.22,62.5c7.67-6.67,15.78-13.7,25.36-14.85,22.69-2.71,22.76,24.65,18.69,42.58-3.83,16.88-14.81,30-25.7,41.89C313.35,195.61,245.23,246.88,171.18,282c-21.39,10.14-47.58,25.7-71.58,20.44-24.53-5.38-29.37-34.42-13-55A106,106,0,0,1,100.93,232.63Z"/><path class="cls-6" d="M337.17,28.66q-.73-.19-1.48-.32c-2.14-.36-4.66-.18-6,1.53-1.77,2.27-.18,5.78,2.25,7.33S337.38,39,340.09,40a14.28,14.28,0,0,1,9,8.86c2.9,9.49-5.92,21-16.09,16.84-3.16-1.3-5.54-4.22-7.89-6.56C319,53.05,310.4,45.43,301,49.57c-7,3.11-8.92,11.18-6.79,18.08,1.45,4.69,4.87,8.36,8.26,11.73,2.82,2.81,6,5.2,8.31,8.5a13.5,13.5,0,0,1,3,10.6q-8.18,7.63-14.18.76c-14.61-11.91-35.85-29.13-53.55-11-5.86,6-8.54,14.63-5.18,22.53,2.83,6.65,19,18.12,4.85,24.12-6.75,2.87-14.09-4.32-17.89-9-5.4-6.7-11.25-16.14-21.48-13.84-8.77,2-10.77,11.34-8.32,18.93,1.3,4,3.68,7.14,6.31,10.42,1.93,2.41,5,5,6.17,7.87,3.77,9.09-1,14.51-9,15.23-16,1.43-23.37-18.64-37-23.42-6-2.1-12.87-1.16-16.46,4.61-4.62,7.43,0,16.83,5,22.74,3.66,4.37,8.1,5.69,8.78,11.69a18.16,18.16,0,0,1-5,14.1,11.29,11.29,0,0,1-3.36,2.49,14.79,14.79,0,0,1-6.76.89c-14.59-.6-20.58-6.77-30.11-16.35-5.8-5.83-16.67-11.73-23.94-4.8s-3.13,16.86,1.73,23.45c2,2.68,4.5,5,6.27,7.86,5.86,9.39-1.49,15.29-10.23,9.27-5.48-3.78-9.18-9.78-14.67-13.69-9.22-6.58-21.73-9-32.89-9.19-11.31-.22-17.34,13.09-13.5,22.83a9.33,9.33,0,0,0,4.52,5.35c2.14.94,4.63.6,6.89,0a6.74,6.74,0,0,0,3.69-2c1.77-2.28.43-5.55.53-8.44a8.29,8.29,0,0,1,4.15-6.82c4.8-2.68,11.18.23,15.4,2.71,8.92,5.25,12.44,13.17,19.57,20,3.84,3.68,9,6.35,14.28,6.07a9,9,0,0,0,5.08-1.67c3.16-2.46,7.94-9.71,8.58-13.81.92-5.84-2-12-5.62-16.4-1.88-2.3-4.11-4.31-5.91-6.68-1.3-1.72-4.41-5.5-4.14-7.89,1-9.41,6.76-6.31,10.37-4.61,5.67,2.68,9.4,9.67,13.15,14.42,6.25,7.91,13.63,14.48,24.37,14.08,9.86-.37,20.54-6.51,25.47-15.14,9.3-16.26-11.59-25-13.85-39.06-1-6.35,6.81-7.47,11.49-5.92,5.73,1.9,9.73,8.73,14.24,12.44,7.83,6.46,17.68,10.51,27.58,6.26,7.93-3.4,12.29-11.1,9.95-19.55s-11.9-12.93-13.87-21.55c-1.08-4.71.73-11.2,6.62-9.3,4.89,1.58,8.38,10,11.59,13.61,6.45,7.2,17.19,12.76,27.1,10.82,9-1.76,12.38-10,9.37-18.21-1.87-5.13-6.11-8.63-9.22-12.95-7.08-9.84-.15-21.92,11.54-23.45,17.13-2.25,25.33,14.57,38.66,20.94,7.63,3.65,16.57,1.31,19.88-6.93,6.92-17.26-17.38-28-19.55-44.13a2,2,0,0,1,.15-1.41,1.8,1.8,0,0,1,1-.62c7.9-2.41,13.56,4.11,18.57,8.79,4.27,4,9,7.46,15,7.7,9.7.39,17.87-8.95,19-18.08C356.48,44.69,347.93,31.47,337.17,28.66Z"/><path class="cls-7" d="M307.49,50.93c-1.69-2.49-6.35-1.19-8.28.38a7.13,7.13,0,0,0-2.09,7.75.47.47,0,0,0,.91-.18,6.46,6.46,0,0,1,2.5-6.12,5.39,5.39,0,0,1,3.44-1,14.65,14.65,0,0,0,2.92.38A.78.78,0,0,0,307.49,50.93Z"/><path class="cls-7" d="M314.51,51a2,2,0,0,0-1.19,3.55,1.87,1.87,0,0,1,.21.3,1.4,1.4,0,0,0,2.4-.14,1.86,1.86,0,0,1,.17-.33A2,2,0,0,0,314.51,51Z"/><path class="cls-7" d="M318.08,96.63a.93.93,0,0,0-1-.36c-1.21.48-1.34,1.24-2,2.32a9.8,9.8,0,0,1-3.5,3.53c-3,1.81-6.46,1.82-9.79,1a.75.75,0,0,0-.65,1.29c3.16,2.65,7.51,2.44,11.08.74C314.61,104,320.24,99.77,318.08,96.63Z"/><path class="cls-7" d="M318.17,91a1.12,1.12,0,0,0,.13,2.24A1.12,1.12,0,0,0,318.17,91Z"/><path class="cls-7" d="M342.41,32.41c-2.24-1.32-5.42-2.92-8.09-2.51a.38.38,0,0,0-.23.66c1.9,1.54,4.48,2.28,6.57,3.55a29,29,0,0,1,3.57,2.54,4.78,4.78,0,0,0,2.7,1.53.61.61,0,0,0,.72-.62C347.39,35.15,344.31,33.54,342.41,32.41Z"/><path class="cls-7" d="M259,127.37c-.28-1.21-2.15-1-2.37.13-.73,3.8-1.28,7.15-5,9.22-3.44,1.9-7.35,1.13-10.71-.54a.56.56,0,0,0-.62.91C247.15,144.26,261.39,137.4,259,127.37Z"/><path class="cls-7" d="M212.75,145.91a1,1,0,0,0-1.4,1.21c1.24,2.93,2.63,5.13,2.11,8.48a12,12,0,0,1-5.16,7.77.84.84,0,0,0,.73,1.49C215.86,162.7,219.42,150.26,212.75,145.91Z"/><path class="cls-7" d="M210.49,112.83c-1.34-1.45-4.52-.17-6,.54a11.61,11.61,0,0,0-2.75,1.89c-1.1,1-1.28,1.88-2,3.13-.16.3.28.61.5.34a14.57,14.57,0,0,1,5.24-3.65c1.54-.65,3.82-.37,5-1.56A.49.49,0,0,0,210.49,112.83Z"/><path class="cls-7" d="M166.58,186.46c-.33-1.19-1.91-.87-2.23.13-1.39,4.46-2.33,7.68-6.45,10.51-3.47,2.38-7.58,3.26-11.2,5.31-.49.28-.18,1,.33,1a24.84,24.84,0,0,0,14.81-5.89C164.75,194.92,167.71,190.52,166.58,186.46Z"/><path class="cls-7" d="M167.36,182.28l.05.35a1.09,1.09,0,0,0,2.18-.12v-.35C169.66,180.71,167.15,180.85,167.36,182.28Z"/><path class="cls-7" d="M99.22,175.62c-2.42,0-4.61,3-5.64,4.91a11.68,11.68,0,0,0-1.16,7.85.46.46,0,0,0,.88,0,15.44,15.44,0,0,1,2-6.9,12.77,12.77,0,0,1,2.35-2.87,8.41,8.41,0,0,0,2.08-2.09A.59.59,0,0,0,99.22,175.62Z"/><path class="cls-7" d="M104.51,220.63c-1.16.69-1.92,1.8-3.1,2.47a9.29,9.29,0,0,1-7.29.48c-3.91-1.22-6.89-4.26-9.92-6.86-.5-.43-1.36.23-.91.79,3.39,4.21,7.7,8.6,13.44,8.88,3.37.17,8.59-1.23,8.83-5.23C105.58,220.61,104.9,220.4,104.51,220.63Z"/><path class="cls-5" d="M45,250c-3.91-3.38-10-4.95-14.71-6.92-1.14-.48-2.5,1.12-1.32,1.93,4.34,3,9.92,6.79,15.38,6.83A1.07,1.07,0,0,0,45,250Z"/><path class="cls-5" d="M31.71,226c-2,1.35-3,3.58-4.17,5.63a83.49,83.49,0,0,0-3.82,7.66c-.41,1,.91,2.06,1.61,1.1,1.67-2.25,3.16-4.58,4.6-7,1.29-2.15,2.75-4.29,2.94-6.84C32.89,226,32.13,225.73,31.71,226Z"/><path class="cls-5" d="M12.56,223.45a2.83,2.83,0,0,0-3.24-.23,2,2,0,0,0-1.13,1.66A2.69,2.69,0,0,0,9,227.42c4.7,3.43,8,7.62,11.72,12,.69.81,2.46.6,2.25-.75C22,232.49,17.55,227,12.56,223.45Z"/><path class="cls-5" d="M18.35,239.17a33.56,33.56,0,0,1-7.62-.25c-1.9-.3-3.89-1.42-5.65-.25A1.22,1.22,0,0,0,4.62,240c.62,2.43,4,2.78,6.1,3a17.24,17.24,0,0,0,8.19-1A1.48,1.48,0,0,0,18.35,239.17Z"/><path class="cls-8" d="M365.65,7.24c-3.4.63-7.13,4.82-4.14,8.27,3.59,4.14,9.28,4.63,11,10.58s-3.2,10.23-7.23,13.85c-3,2.73.8,6.55,3.89,5.89,8.74-1.88,13.21-11.95,12.81-20.13C381.59,18.25,374.56,5.59,365.65,7.24Z"/><path class="cls-8" d="M283.9,104.22c-3.83,1.67-7,4.67-10.55,6.9s-7.25,4.16-10.15,7c-1.72,1.66-.09,4.83,2.22,4.61,4.06-.4,8.17-2.47,11.68-4.51,3.69-2.14,8.17-4.57,10.73-8C289.8,107.52,287.61,102.6,283.9,104.22Z"/><path class="cls-8" d="M306.43,88.49c-2.08-.45-3.91.64-5.41,2a18.65,18.65,0,0,1-1.84,1.42,7,7,0,0,0-1.84,2,1.79,1.79,0,0,0,1.41,2.93,6.87,6.87,0,0,0,2.36-.26c.81-.28,1.59-.67,2.41-.88,1.9-.48,4-1.16,4.82-3.15A2.87,2.87,0,0,0,306.43,88.49Z"/><path class="cls-8" d="M323.89,74.66a4.43,4.43,0,0,0-1.06.9c-.05.06-.7.66-.25.3-.32.25-.66.55-1,.79,0-.06-.44.2-.08,0a2.9,2.9,0,0,0-1.89,2.8,2.8,2.8,0,0,0,2.2,2.57,6,6,0,0,0,4.34-.8A5.18,5.18,0,0,0,328.64,77C328.72,74.54,325.72,73.62,323.89,74.66Z"/><path class="cls-8" d="M232.29,143.63a14.2,14.2,0,0,0-5.41,1.92c-1.54.8-3.25,2.21-3.63,4a2.42,2.42,0,0,0,1.82,2.83c1.53.36,3.26-.34,4.64-1a31,31,0,0,0,4.44-2.12C236.58,147.54,235.36,143.39,232.29,143.63Z"/><path class="cls-8" d="M183.4,172.19a23.54,23.54,0,0,0-5.57,2,48.23,48.23,0,0,0-5.44,2.31c-2,1.12-1.38,4.69.94,5,3.94.48,9.93-1.2,12.41-4.45C187.11,175.25,186.11,171.78,183.4,172.19Z"/><path class="cls-8" d="M155.18,184.76c-1.32-2.45-5.06-.65-6.8.19-3.27,1.58-7.27,3.3-9.53,6.23a2,2,0,0,0,1.55,3.21c3.64-.16,7.12-2.33,10.27-4C152.27,189.5,156.54,187.29,155.18,184.76Z"/><path class="cls-8" d="M72.6,222.86a51.57,51.57,0,0,0-10.13,3.33A31.34,31.34,0,0,1,51.34,228c-4.75.1-5.55,8-.66,8.51,8,.91,18.54,1.36,25.12-4.06C79.26,229.61,78.33,221.79,72.6,222.86Z"/><path class="cls-8" d="M121.16,207.27a9.08,9.08,0,0,0-4.27,1.66,2.6,2.6,0,0,0,1.57,4.72,8,8,0,0,0,3.78-.78,2.93,2.93,0,0,0,1.88-3.27A2.85,2.85,0,0,0,121.16,207.27Z"/><path class="cls-3" d="M201.15,234c-.33-1.37-1.89-1.78-3.07-1.52s-1.81,1.69-3.16,1.3c-1.57-.46-2.08-2.54-3-3.68-1.08-1.37-3.64-1.25-4,.75-.58,3.59,2.23,7.38,5.71,8.26C197,239.94,202.14,238.14,201.15,234Z"/><path class="cls-3" d="M248,210.09a19.21,19.21,0,0,0-2,1.36,1.47,1.47,0,0,1-1.24.14c-1-.37-1.3-1.9-1.62-2.74-.46-1.21-2.26-1.82-3.15-.64-2.15,2.85-.36,6.69,2.66,8.11a6.76,6.76,0,0,0,4.76.28c1.62-.5,3.61-1.78,3.8-3.61S249.9,209.25,248,210.09Z"/><path class="cls-3" d="M290.31,218.17a2.19,2.19,0,0,0-2.11-1.42,2.12,2.12,0,0,0-1.93,1.65c-.12.78-.41,2-1.49,1.37s-1.21-2.59-1.83-3.67a1.44,1.44,0,0,0-2.26-.16c-2,2.8.37,7,3.32,8a5,5,0,0,0,4.64-1C290,221.86,291.11,219.88,290.31,218.17Z"/><path class="cls-3" d="M179.43,275.76a1.65,1.65,0,0,0-2.82.16c-.21.45-.41,1.29-1.05,1.33-.88.06-1.46-1.32-1.68-2-.71-2.05-.38-4.27-1.74-6.08a1.44,1.44,0,0,0-2.62.87c-.09,3.62.46,8.93,4.26,10.61C176.74,282,181.35,279.13,179.43,275.76Z"/><path class="cls-3" d="M129.19,279.88c-3.32,2.08-4.68-2.87-5.34-5.24a1,1,0,0,0-1.91.11c-.69,2.9-.38,6.15,2.12,8.14,2,1.6,5.84,2.11,7.51-.26C132.72,281,131.07,278.71,129.19,279.88Z"/><path class="cls-3" d="M298.51,146.95c-1.24.35-2.39,1-3.64.25a5.79,5.79,0,0,1-2-3.3c-.14-1-1.63-1.54-2.12-.45a4.8,4.8,0,0,0-.51,3.76,6.28,6.28,0,0,0,2.53,3.24c2.21,1.47,5.88,1.62,7.72-.54A1.85,1.85,0,0,0,298.51,146.95Z"/><path class="cls-3" d="M325.67,174.48a.81.81,0,0,1-.63.46,1.32,1.32,0,0,1-1.33-.43,4.59,4.59,0,0,1-1.18-2.33,14.93,14.93,0,0,0-.47-1.42,5.78,5.78,0,0,0-.44-.77.74.74,0,0,0-1.46-.11c0,.06-.48.52-.58.7a5.3,5.3,0,0,0-.38,1.06,6.37,6.37,0,0,0-.05,2.89,6.31,6.31,0,0,0,2.77,4.29c2.68,1.58,7.39.66,8-2.8C330.46,173.33,327,172.36,325.67,174.48Z"/><path class="cls-3" d="M356.47,128.42c-.48.39-.74.78-1.39.68-.82-.12-1.5-1.1-2-1.71-1.12-1.53-1.91-3.62-3.59-4.61a1.18,1.18,0,0,0-1.58.51c-1.06,2.95,1.45,6.93,3.68,8.78s6.53,2.25,7.92-.87C360.37,129.39,358.27,127,356.47,128.42Z"/><path class="cls-9" d="M370.26,88.14a21.16,21.16,0,0,0-1.51-3.31c-.57-1-1.3-1.9-1.87-2.9-.76-1.32-3.2-.6-2.93,1,.41,2.34.5,4.62,1.35,6.9C366.47,93,371.38,91.33,370.26,88.14Z"/><path class="cls-9" d="M357,127.15a15.73,15.73,0,0,1-1.38-4.74c-.22-1.66,0-3.46-.64-5-.85-1.94-3.81-2.56-4.84-.36-1.8,3.86,1,8.8,3.4,11.8C354.81,130.42,358,129.3,357,127.15Z"/><path class="cls-9" d="M299.24,144.49c-.47-2.2-2-4.07-2.43-6.32-.3-1.61-2.66-2.09-3.06-.24-.67,3.12-.21,7.12,2.89,8.8C298.2,147.58,299.56,146,299.24,144.49Z"/><path class="cls-9" d="M323.25,161.5c-1.35-1.49-4.21.37-3.33,2.2a38.3,38.3,0,0,1,2.93,10c.63,3.54,5.88,3.47,5.73-.32A18.74,18.74,0,0,0,323.25,161.5Z"/><path class="cls-9" d="M286.33,208.22a2.11,2.11,0,0,0-3.42,1.11c-.71,3,1.15,5.78,2.5,8.28,1,1.78,4.05.73,3.78-1.26C288.81,213.55,288.64,210.2,286.33,208.22Z"/><path class="cls-9" d="M246.59,202.32c-1.14-1.89-4.58-.88-4.23,1.41.42,2.78,2,5.08,3.51,7.34a1.46,1.46,0,0,0,2.66-.88C248.27,207.5,248,204.7,246.59,202.32Z"/><path class="cls-9" d="M193.48,223.14c-1.6-.74-3.94.39-3.66,2.38a23.4,23.4,0,0,0,1.4,4.32c.47,1.4.63,2.78,1,4.2.5,2,3.46,2,4.34.32C198.38,230.85,197.28,224.9,193.48,223.14Z"/><path class="cls-9" d="M173.75,261.68a1.33,1.33,0,0,0-1.87.89c-.62,2.08.21,3.79.8,5.78a58.25,58.25,0,0,1,1.4,7.1c.3,1.84,3.1,2.39,3.5.27C178.34,271.68,178.19,263.62,173.75,261.68Z"/><path class="cls-9" d="M129,277.19a11.92,11.92,0,0,1-1-6c.08-2-3.21-2.26-3.55-.28a11.94,11.94,0,0,0,1.68,8.17C127.25,281,130,279.12,129,277.19Z"/></g></g></svg>