<svg xmlns="http://www.w3.org/2000/svg" viewBox="0 0 400 400"><defs><style>.cls-1{fill:#fff;}.cls-2{fill:#d48524;}.cls-3{fill:#943c1e;}.cls-4{fill:#fbbb3b;}</style></defs><title>hotdog-simple-circle-tan</title><g id="Layer_2" data-name="Layer 2"><g id="OBJECTS"><circle class="cls-1" cx="200" cy="200" r="200"/><path class="cls-2" d="M260.46,124.89V275.11a50.37,50.37,0,0,1-50.22,50.22H189.76a50.37,50.37,0,0,1-50.22-50.22V124.89a50.37,50.37,0,0,1,50.22-50.22h20.48A50.37,50.37,0,0,1,260.46,124.89Z"/><path class="cls-3" d="M222,83.55V316.45a21.42,21.42,0,0,1-21.36,21.36h-1.26A21.42,21.42,0,0,1,178,316.45V83.55A21.42,21.42,0,0,1,199.37,62.2h1.26A21.42,21.42,0,0,1,222,83.55Z"/><path class="cls-4" d="M216,106.1c0,5.85-5.87,11.87-12.67,18.84-3.94,4-10.54,10.8-10.54,13.36,0,2.12,5.32,7.45,8.85,11C208.33,156,216,163.69,216,172.05c0,8.15-6.93,13.16-13.05,17.58-5.23,3.78-10.17,7.35-10.17,11.83,0,4.74,5.38,9.25,10.59,13.61,6.21,5.2,12.63,10.58,12.63,18.24s-6.3,12.71-12.4,17.64c-5.56,4.5-10.82,8.75-10.82,14,0,5.42,5.69,10,11.19,14.46,5.91,4.78,12,9.72,12,16.75,0,13.3-22,19.94-26.43,21.13a4.35,4.35,0,0,1-2.28-8.4c8.39-2.28,20-8,20-12.73,0-2.87-4.47-6.49-8.79-10C191.7,280.74,184,274.54,184,265c0-9.42,7.46-15.46,14-20.79,4.72-3.82,9.17-7.42,9.17-10.87s-4.84-7.64-9.51-11.56c-6.42-5.38-13.7-11.48-13.7-20.28s7.32-14.22,13.77-18.88c4.86-3.51,9.44-6.83,9.44-10.52,0-4.76-6.56-11.34-11.83-16.62C189.32,149.31,184,144,184,138.3c0-6.1,6-12.28,13-19.44,3.81-3.91,10.2-10.45,10.2-12.75,0-1.53-4.53-4.08-7.23-5.6-5.33-3-12-6.73-12-13.62a4.35,4.35,0,0,1,8.71,0c0,1.79,4.35,4.24,7.53,6C209.76,96,216,99.48,216,106.1Z"/></g></g></svg>