<?xml version="1.0" encoding="UTF-8"?>
<svg width="272px" height="392px" viewBox="0 0 272 392" version="1.1" xmlns="http://www.w3.org/2000/svg" xmlns:xlink="http://www.w3.org/1999/xlink">
    <!-- Generator: Sketch 47.1 (45422) - http://www.bohemiancoding.com/sketch -->
    <title>Logo</title>
    <desc>Created with Sketch.</desc>
    <defs>
        <linearGradient x1="68.6627595%" y1="98.3647745%" x2="50%" y2="24.3123998%" id="linearGradient-1">
            <stop stop-color="#2196F3" offset="0%"></stop>
            <stop stop-color="#00D26C" offset="47.5247532%"></stop>
            <stop stop-color="#FFC917" offset="100%"></stop>
        </linearGradient>
    </defs>
    <g id="Screens" stroke="none" stroke-width="1" fill="none" fill-rule="evenodd">
        <g id="Mobile" transform="translate(-60.000000, -49.000000)">
            <g id="Hero" transform="translate(-345.000000, 0.000000)">
                <g id="Logo" transform="translate(407.000000, 51.000000)">
                    <path d="M99.9967341,166.541781 C99.9821256,168.011636 99.9427951,171.848744 97.5593642,175.910473 C96.0603087,178.359505 93.9578103,180.255705 91.4237996,181.896753 C88.7178583,183.567241 85.0578705,184.908429 80.8843381,185.598651 C71.1472195,187.210258 66.4949783,183.659925 64.3565205,180.429078 C62.0472558,176.898372 61.9978117,172.995841 62.0000591,172.832282 C62.0112964,171.524896 63.1530059,170.196792 64.5453071,169.966718 C65.8477099,169.749729 67.0545957,170.690742 67.0422347,171.997038 C67.0411109,172.078817 67.0130177,174.935658 68.7267056,177.423944 C71.037094,180.788909 75.0184686,181.921832 80.930411,180.944836 C90.320297,179.38993 94.878145,174.88768 94.9534349,167.377025 C95.0208587,160.437738 91.846322,156.806716 85.3354317,156.743473 C83.9465017,156.729298 83.0879722,155.648714 83.4486894,154.285718 C83.7228795,152.934716 84.9466212,152.000246 86.4232021,152.000246 C89.4617675,151.98498 92.1474816,152.681744 94.2151444,154.051282 C96.0310917,155.055538 97.4908167,156.607173 98.4268836,158.569888 C100.043931,161.807277 100.011343,165.234395 99.9967341,166.541781 Z M97.5406037,139.502254 C96.1486368,139.733593 95.0285472,138.938093 95.0420287,137.631901 L94.9543988,137.647178 L95.0420287,137.631901 C94.9555223,137.564245 94.9858557,134.460812 93.1883197,131.822238 C90.9649924,128.438361 86.8104374,127.087429 81.0706804,128.037883 C69.5922897,129.939881 67.0948382,136.878958 67.0442825,142.188841 C66.9993441,147.008766 68.7665466,152.668932 77.711535,152.246629 C79.0136251,152.195342 79.958455,153.262556 79.7730841,154.516369 C79.5877132,155.688341 78.5361546,156.759921 77.3172006,156.962888 C77.2318176,156.978165 77.0576813,157.005445 76.9711749,156.938881 C73.4974366,157.186588 70.6371075,156.681353 68.3935579,155.423174 C66.4061572,154.365781 64.8580294,152.909 63.8356808,150.956805 C61.9561322,147.761709 61.9909595,144.250159 62.0021941,143.024717 C62.0066879,142.451826 62.0201695,141.145634 62.2965406,139.469518 C62.7515419,137.352548 63.3773091,135.373073 64.5243618,133.472165 C65.9354275,131.034376 67.9531616,128.987245 70.4854404,127.263115 C73.2828558,125.494245 76.9419649,124.073475 81.1156188,123.382732 C90.7683869,121.784093 95.4206347,125.49861 97.643962,128.881397 C99.7819063,132.280551 100.006598,135.912136 99.9998576,136.647619 L99.9987341,136.72837 C99.9852526,138.036744 98.8449407,139.286193 97.5406037,139.502254 Z M115.558219,178.963924 C114.133603,179.18961 112.986314,178.332861 113.000123,177.052553 C113.013932,175.771174 114.180783,174.626704 115.6054,174.399949 L149.442921,169.034845 C150.776629,168.824134 152.014825,169.585688 151.999866,170.869206 C151.987208,172.149515 150.728298,173.38597 149.392288,173.59882 L115.558219,178.963924 Z M113.00013,170.098166 L113.451653,120.810886 C113.464024,119.509364 114.511394,118.264335 115.786589,118.036189 C117.063845,117.806956 118.012251,118.691295 117.99988,119.993904 L117.546295,169.281183 C117.533924,170.582706 116.567993,171.729957 115.291768,171.960277 C114.014512,172.190596 112.986728,171.399688 113.00013,170.098166 Z M66.0001172,222.054681 L66.1783295,202.878336 C66.1914494,201.543041 67.300083,200.268999 68.6547151,200.034014 C69.921881,199.811279 71.011928,200.705559 70.9999014,202.03974 L70.8205958,221.216085 C70.8074759,222.465626 69.6988423,223.740783 68.4294897,223.962404 C67.0770443,224.197389 65.9869973,223.303109 66.0001172,222.054681 Z M27.0000989,265.961373 L27.1763184,246.785029 C27.1872638,245.534374 28.2971186,244.259217 29.566775,244.037596 C30.9218048,243.802611 32.0108635,244.696891 31.9999182,245.945319 L31.8226041,265.12389 C31.8105643,266.456957 30.7007095,267.731 29.3467742,267.965985 C28.0771178,268.18872 26.988059,267.29444 27.0000989,265.961373 Z M65.733614,260.009756 L65.990367,234.149112 L29.4273795,240.179765 C28.1153376,240.396199 26.9876602,239.520623 27.000102,238.211085 L27.27269,209.814442 C27.2851318,208.505997 28.4320373,207.252207 29.7452103,207.036866 C31.1454757,206.806221 32.272022,207.681797 32.2584491,208.992428 L32.0096136,235.015943 L68.5748633,228.984198 C69.8869052,228.766671 71.0134515,229.644433 70.9998786,230.952878 L70.7193731,259.186649 C70.7046692,260.495094 69.5577636,261.74779 68.2468528,261.963132 C66.8465874,262.193776 65.7200411,261.3182 65.733614,260.009756 Z M114.999857,235.051915 C114.986236,236.401314 113.835284,237.691015 112.430078,237.928681 L94.5233445,240.962012 C93.1181382,241.199678 91.9876168,240.29745 92.0001024,238.946925 C92.0137232,237.598652 93.1658108,236.308951 94.5710171,236.071286 L112.478885,233.037954 C113.884092,232.800289 115.014613,233.703643 114.999857,235.051915 Z M129.386937,252.354755 C128.154479,253.050881 126.668045,252.722063 126.154427,251.65753 L104.145918,203.601769 L80.912888,259.148853 C80.3777267,260.057226 79.4956176,260.780844 78.5307399,260.940304 C78.1803907,260.99859 77.9173453,261.041479 77.5681299,260.933706 C76.2574382,260.657675 75.6587832,259.36 76.197346,258.038131 L101.937244,196.817568 C102.296664,195.935589 103.268344,195.198774 104.232088,195.038214 C105.285404,194.864458 106.155041,195.296649 106.497453,196.062058 L130.821215,248.993997 C131.334833,250.14211 130.706699,251.642134 129.386937,252.354755 Z M175.820899,204.517464 C175.820899,204.517464 175.840515,202.800772 175.241645,200.531506 C174.470846,197.554596 172.893476,195.197966 170.770315,193.663645 C167.323641,190.955377 162.339983,190.209512 155.823958,191.261149 C136.986677,194.30249 135.326227,208.03712 135.191222,220.791095 C135.145066,225.123231 135.071217,232.074087 137.687089,237.282042 C140.654899,243.086253 146.423203,245.17424 155.259705,243.748031 C163.736192,242.378609 169.746814,238.6329 173.020404,232.554586 C175.565889,227.900297 175.612044,223.730876 175.612044,223.650064 C175.627045,222.339612 176.887095,221.158021 178.315613,220.926508 C179.74413,220.694995 180.803403,221.504199 180.79071,222.813559 C180.787248,223.057085 180.729554,228.291249 177.547121,234.109656 C174.548156,239.490154 168.326373,246.371119 155.207779,248.489683 C149.406012,249.427749 144.51005,249.076111 140.698746,247.405284 C137.419387,245.813085 134.860055,243.370184 132.938825,239.928063 C129.882167,233.973151 129.965247,226.288441 130.01371,221.6276 C130.065635,216.64133 130.1441,209.201238 133.246915,202.334469 C135.162375,198.269884 137.869404,194.977373 141.196074,192.317155 C145.058149,189.410136 149.98065,187.471759 155.874729,186.520589 C163.820426,185.236346 170.136829,186.33931 174.55508,189.70608 C181.007642,194.785173 181.006488,203.026825 180.999564,203.680959 L180.99841,203.762862 C180.984564,205.072222 179.902213,206.22542 178.47485,206.455841 C177.046332,206.686262 175.805898,205.907635 175.820899,204.517464 Z M227.972653,236.025848 C227.531348,236.426195 227.00765,236.595741 226.483953,236.682154 C225.697278,236.812322 225.000896,236.68106 224.570878,236.18008 L199.846497,209.861108 L191.190819,220.447327 L190.976374,240.264492 C190.96283,241.492879 189.904149,242.732204 188.50687,242.963005 C187.110721,243.193806 185.986577,242.317637 186.000121,241.08925 L186.224724,220.369664 C186.230367,219.878528 186.497859,219.2616 186.850001,218.795623 L220.425317,177.275505 C221.397092,176.054776 222.971569,175.629271 224.008806,176.355583 C225.047171,177.084083 225.206312,178.530144 224.233409,179.671023 L203.116219,205.724191 L228.532467,232.582428 C229.307855,233.517665 229.117112,235.019512 227.972653,236.025848 Z M186.000116,206.127444 L186.234548,183.768658 C186.246432,182.566527 187.34513,181.25949 188.682581,181.033622 C190.020033,180.806684 191.011778,181.759397 190.999894,182.961528 L190.765462,205.320314 C190.750338,206.603801 189.739146,207.735281 188.400615,207.961149 C187.063163,208.187017 185.987152,207.40879 186.000116,206.127444 Z M267.996513,212.541712 C267.978532,214.011561 267.935826,217.84865 265.546576,221.91036 C264.044023,224.35938 261.939101,226.254482 259.403753,227.896612 C256.695337,229.568183 253.035042,230.908275 248.863407,231.598493 C239.126594,233.210092 234.479581,229.661957 232.345439,226.428944 C230.042723,222.898255 229.998894,218.994652 230.000018,218.833274 C230.015752,217.524804 231.158681,216.196706 232.549975,215.966633 C233.853611,215.749645 235.057227,216.690654 235.043741,217.998034 C235.042617,218.078723 235.01115,220.934459 236.719363,223.423824 C239.024326,226.788774 243.003787,227.921691 248.915102,226.9447 C258.303529,225.389801 262.868503,220.887572 262.95279,213.376953 C263.031458,206.437698 259.862274,202.806693 253.353084,202.74345 C251.964037,202.728185 251.107683,201.648697 251.470679,200.285707 C251.746015,198.934711 252.972108,198.000245 254.446565,198.000245 C257.484262,197.98498 260.167954,198.682831 262.23579,200.051272 C264.047395,201.054433 265.504995,202.607151 266.437769,204.569857 C268.050456,207.80723 268.011123,211.236513 267.996513,212.541712 Z M266.537858,186.502561 C265.146796,186.733904 264.027655,185.938388 264.042262,184.632172 L263.955742,184.647449 L264.042262,184.632172 C263.956865,184.564515 263.990575,181.461023 262.198374,178.8224 C259.980316,175.437367 255.827355,174.088592 250.08782,175.039064 C238.609874,176.940007 236.104164,183.878124 236.045735,189.189198 C235.991801,194.008123 237.752539,199.668395 246.695562,199.249358 C247.997856,199.195887 248.940587,200.263122 248.751817,201.516959 C248.565293,202.688952 247.513569,203.760552 246.296671,203.963523 C246.209027,203.977709 246.034863,204.006081 245.948343,203.938424 C242.475183,204.187228 239.617776,203.681983 237.373873,202.423781 C235.390655,201.365276 233.843408,199.909559 232.824269,197.95951 C230.951167,194.762171 230.989371,191.250554 231.002855,190.02509 C231.008473,189.451096 231.024204,188.14488 231.301742,186.468732 C231.757938,184.352814 232.388298,182.374392 233.536655,180.472357 C234.95356,178.034523 236.971612,175.987353 239.507659,174.263191 C242.305514,172.494288 245.967445,171.072399 250.139508,170.382734 C259.792669,168.784065 264.437782,172.498653 266.656964,175.882594 C268.789626,179.27963 269.008735,182.912375 268.999746,183.647872 L268.999746,183.728623 C268.984015,185.037023 267.843524,186.286495 266.537858,186.502561 Z M166.458434,164.350046 C162.013631,160.088777 159.890384,152.668215 160.004353,141.69003 C160.061338,136.118864 160.639162,131.524922 161.650069,127.434367 C162.660977,123.261737 164.196143,119.738037 166.427662,116.920172 C168.65918,114.018044 171.412678,111.768129 174.778191,109.992053 C177.878156,108.339635 181.590135,107.240941 185.91413,106.534012 C190.236985,105.824895 194.025324,105.776745 197.099076,106.664236 C200.439515,107.344901 203.153124,108.944792 205.329937,111.204556 C209.245922,115.63435 211.105901,122.854651 210.99535,133.340394 C210.939505,138.418023 210.360541,143.011965 209.348494,147.021541 C208.24983,150.962175 206.536872,154.595307 204.215318,157.59264 C199.926653,163.448329 193.547793,167.109912 185.257667,168.469054 C176.700853,169.868685 170.55221,168.502978 166.458434,164.350046 Z M170.257628,119.344077 C166.857679,123.957343 165.109198,130.985944 165.004198,140.833159 C164.901481,150.597762 166.685341,156.968722 170.174313,160.627595 C173.315186,163.771225 178.331225,164.662572 185.309168,163.528822 C192.110209,162.425508 197.077171,159.667766 200.478263,155.054499 C203.970658,150.181437 205.899465,143.124575 205.995334,134.174142 C206.095769,124.895432 204.57555,118.644043 201.351361,114.944951 C198.127173,111.40565 193.111134,110.270812 185.866125,111.448043 C178.356334,112.66658 173.389371,115.178658 170.257628,119.344077 Z" id="Letters" stroke="#455A64" fill="#455A64"></path>
                    <path d="M217.656675,358.120603 C222.043022,357.366262 226.121219,360.232757 226.877485,364.420726 C227.634881,368.607593 224.807346,372.661212 220.420999,373.416654 L136.343325,387.879076 C131.956978,388.634518 127.878781,385.768023 127.122515,381.581156 C126.365119,377.393187 129.192654,373.339568 133.579001,372.585227 L217.656675,358.120603 Z M223.277427,330.124651 C227.445395,329.418437 231.681579,331.771027 232.736645,335.71096 C233.936101,340.186566 230.903922,344.488351 226.372138,345.255786 L122.416241,362.881628 C117.603636,363.697163 112.962707,360.210913 113.000226,355.129668 C113.028649,351.405098 116.035816,348.308031 119.850201,347.66085 L223.277427,330.124651 Z M214.951371,303.146221 C212.239232,283.84881 213.011541,265.865929 215.682913,248.944616 C216.148336,246.00206 218.518485,243.665961 221.588468,243.149231 L221.741344,243.123286 C227.306042,242.186036 232.155052,246.730673 231.341977,252.067702 C228.669472,269.560879 228.204049,288.146973 231.87761,308.037867 C232.637462,312.149012 229.784903,316.038547 225.38433,316.77905 L111.917268,335.878633 C107.517827,336.619136 103.442258,333.894948 102.682406,329.784884 C99.2285338,311.078796 91.4001343,292.423515 82.939846,276.897808 C80.3624646,272.169396 83.3339271,266.420496 88.8329446,265.495137 L89.0900033,265.451895 C92.162251,264.934084 95.2288365,266.358877 96.7190974,268.976043 C105.310746,284.065016 112.480079,300.690128 116.836488,319.661068 L214.951371,303.146221 Z M17.9933348,149.327528 C19.7197971,158.69113 27.9532597,173.387607 33.8602917,183.052703 C36.7561837,187.792317 33.8218757,193.835162 28.1690675,194.787192 L27.5284234,194.895254 C24.6641682,195.378293 21.7795751,194.162591 20.1977379,191.828445 C11.5541276,179.067364 5.01097101,166.149592 2.39416034,151.958846 L2.13089744,150.528101 C-4.82466666,110.710372 5.78381147,76.31305 26.1454458,50.4018632 C46.4132997,24.5079664 76.558597,7.26554009 108.878921,1.81487588 C109.159132,1.76732846 109.439343,1.71978103 109.642722,1.77813469 L110.109364,1.69924918 C144.160669,-3.76654375 180.555353,4.00529942 209.525572,24.2669873 C235.419116,42.4679265 255.327667,70.5219895 262.260634,108.134166 C264.478596,120.161504 261.155608,141.992257 259.509367,151.401245 C259.037076,154.103884 256.839452,156.225147 254.017002,156.700621 C248.21392,157.679666 243.267289,152.689348 244.551967,147.188975 C247.537119,134.398717 248.783381,122.273042 246.662589,110.764403 C240.502463,77.3526097 222.916953,52.4982725 200.132848,36.5363849 C174.679958,18.6293753 142.707639,11.8614312 112.6742,16.6507539 L111.646006,16.8236537 C83.2497684,21.6118958 56.6692541,36.7806058 38.7267009,59.6109354 C20.8598498,82.3364446 11.6309597,112.724654 17.7458903,147.987555 L17.9933348,149.327528 Z" id="Bulb" stroke="url(#linearGradient-1)" stroke-width="2.5"></path>
                </g>
            </g>
        </g>
    </g>
</svg>