<?xml version="1.0" encoding="UTF-8"?>
<svg width="400px" height="400px" viewBox="0 0 400 400" version="1.1" xmlns="http://www.w3.org/2000/svg" xmlns:xlink="http://www.w3.org/1999/xlink">
    <!-- Generator: Sketch 47.1 (45422) - http://www.bohemiancoding.com/sketch -->
    <title>Group</title>
    <desc>Created with Sketch.</desc>
    <defs>
        <linearGradient x1="68.6627595%" y1="72.2216966%" x2="50%" y2="38.197566%" id="linearGradient-1">
            <stop stop-color="#2196F3" offset="0%"></stop>
            <stop stop-color="#00D26C" offset="47.5247532%"></stop>
            <stop stop-color="#FFC917" offset="100%"></stop>
        </linearGradient>
    </defs>
    <g id="Page-1" stroke="none" stroke-width="1" fill="none" fill-rule="evenodd">
        <g id="Artboard" transform="translate(-16.000000, -52.000000)">
            <g id="Group" transform="translate(16.000000, 52.000000)">
                <g id="hotdog-simple-circle-white" fill-rule="nonzero">
                    <circle id="Oval" fill="#FFFFFF" cx="200" cy="200" r="200"></circle>
                    <path d="M260.46,124.89 L260.46,275.11 C260.377628,302.811549 237.941549,325.247628 210.24,325.33 L189.76,325.33 C162.058451,325.247628 139.622372,302.811549 139.54,275.11 L139.54,124.89 C139.622372,97.1884512 162.058451,74.7523721 189.76,74.67 L210.24,74.67 C237.941549,74.7523721 260.377628,97.1884512 260.46,124.89 Z" id="Shape" fill="#D48524"></path>
                    <path d="M222,83.55 L222,316.45 C221.96704,328.233123 212.423123,337.77704 200.64,337.81 L199.38,337.81 C187.589067,337.788028 178.033007,328.240907 178,316.45 L178,83.55 C178.038475,71.7668921 187.586861,62.2274423 199.37,62.2 L200.63,62.2 C212.413139,62.2274423 221.961525,71.7668921 222,83.55 L222,83.55 Z" id="Shape" fill="#943C1E"></path>
                    <path d="M216,106.1 C216,111.95 210.13,117.97 203.33,124.94 C199.39,128.94 192.79,135.74 192.79,138.3 C192.79,140.42 198.11,145.75 201.64,149.3 C208.33,156 216,163.69 216,172.05 C216,180.2 209.07,185.21 202.95,189.63 C197.72,193.41 192.78,196.98 192.78,201.46 C192.78,206.2 198.16,210.71 203.37,215.07 C209.58,220.27 216,225.65 216,233.31 C216,240.97 209.7,246.02 203.6,250.95 C198.04,255.45 192.78,259.7 192.78,264.95 C192.78,270.37 198.47,274.95 203.97,279.41 C209.88,284.19 215.97,289.13 215.97,296.16 C215.97,309.46 193.97,316.1 189.54,317.29 C187.220404,317.919604 184.829605,316.549596 184.2,314.23 C183.570396,311.910404 184.940404,309.519605 187.26,308.89 C195.65,306.61 207.26,300.89 207.26,296.16 C207.26,293.29 202.79,289.67 198.47,286.16 C191.7,280.74 184,274.54 184,265 C184,255.58 191.46,249.54 198,244.21 C202.72,240.39 207.17,236.79 207.17,233.34 C207.17,229.89 202.33,225.7 197.66,221.78 C191.24,216.4 183.96,210.3 183.96,201.5 C183.96,192.7 191.28,187.28 197.73,182.62 C202.59,179.11 207.17,175.79 207.17,172.1 C207.17,167.34 200.61,160.76 195.34,155.48 C189.32,149.31 184,144 184,138.3 C184,132.2 190,126.02 197,118.86 C200.81,114.95 207.2,108.41 207.2,106.11 C207.2,104.58 202.67,102.03 199.97,100.51 C194.64,97.51 187.97,93.78 187.97,86.89 C187.97,84.4847999 189.9198,82.535 192.325,82.535 C194.7302,82.535 196.68,84.4847999 196.68,86.89 C196.68,88.68 201.03,91.13 204.21,92.89 C209.76,96 216,99.48 216,106.1 Z" id="Shape" fill="#FBBB3B"></path>
                </g>
                <rect id="Rectangle" fill="#FFFFFF" x="123" y="59" width="139" height="279"></rect>
                <g id="hotdog" transform="translate(99.000000, 59.000000)">
                    <path d="M69.2786975,116.603476 C69.2684353,117.637818 69.2408065,120.338005 67.5664955,123.196259 C66.51344,124.919652 65.0364783,126.254015 63.2563881,127.408826 C61.3555203,128.584355 58.7844545,129.528154 55.8526342,130.013866 C49.0125096,131.147959 45.7444062,128.649577 44.2421838,126.376018 C42.6199731,123.891447 42.5852396,121.145221 42.5868184,121.030124 C42.5947123,120.110112 43.3967397,119.17552 44.3748025,119.013616 C45.2897136,118.86092 46.1375259,119.523115 46.1288425,120.44236 C46.1280531,120.499908 46.1083182,122.510278 47.3121486,124.261294 C48.9351487,126.629232 51.7319821,127.426474 55.8849995,126.738959 C62.4812004,125.644766 65.6829944,122.476516 65.735884,117.19124 C65.7832478,112.308038 63.5532014,109.752874 58.9794355,109.70837 C58.0037409,109.698395 57.4006416,108.937984 57.654038,107.978839 C57.8466509,107.028134 58.7063041,106.370544 59.7435717,106.370544 C61.8781011,106.359801 63.7647598,106.850116 65.2172502,107.813865 C66.4929156,108.520564 67.5183423,109.612455 68.17591,110.993625 C69.3118523,113.271788 69.2889599,115.683463 69.2786975,116.603476 Z M67.5533166,97.5756603 C66.5754887,97.7384544 65.7886488,97.1786581 65.7981193,96.259486 L65.7365611,96.2702364 L65.7981193,96.259486 C65.7373504,96.2118762 65.758659,94.0279789 64.4959271,92.1712046 C62.9340856,89.7899578 60.0155965,88.839302 55.9835358,89.50814 C47.9202035,90.846583 46.1657954,95.7296372 46.1302811,99.4662215 C46.0987128,102.858021 47.340136,106.8411 53.6238056,106.543924 C54.538497,106.507833 55.2022204,107.258836 55.0720012,108.141149 C54.941782,108.96587 54.2030838,109.719944 53.3467938,109.862773 C53.286814,109.873524 53.1644869,109.892721 53.1037179,109.845879 C50.6634885,110.020192 48.6541664,109.664656 47.0781192,108.779271 C45.6820112,108.035179 44.5944835,107.010037 43.8763047,105.63627 C42.5559606,103.387869 42.5804261,100.916779 42.5883182,100.054431 C42.591475,99.651285 42.6009455,98.7321129 42.7950905,97.5526238 C43.1147195,96.0629042 43.554308,94.6699403 44.3600889,93.3322643 C45.3513334,91.6167832 46.7687499,90.1762095 48.5476234,88.9629328 C50.5127499,87.7181725 53.0831985,86.7183714 56.0151041,86.232293 C62.7959743,85.1073248 66.0640822,87.7212441 67.6259237,90.1017239 C69.1277854,92.4937211 69.2856267,95.049281 69.2808917,95.5668431 L69.2801025,95.6236678 C69.270632,96.5443755 68.4695864,97.4236174 67.5533166,97.5756603 Z M80.2103191,125.344984 C79.2095558,125.5038 78.403609,124.900902 78.4133095,123.999945 C78.4230101,123.098234 79.2426988,122.292866 80.2434628,122.133297 L104.013622,118.357854 C104.950524,118.209576 105.820332,118.745484 105.809823,119.648701 C105.800931,120.549659 104.916573,121.419757 103.978054,121.56954 L80.2103191,125.344984 Z M78.4133145,119.106117 L78.7305,84.4224754 C78.7391904,83.5065896 79.4749462,82.630458 80.3707443,82.4699109 C81.2679903,82.3085987 81.9342259,82.9309114 81.9255355,83.8475621 L81.6069014,118.531203 C81.5982111,119.447089 80.9196645,120.254414 80.0231428,120.416491 C79.1258968,120.578568 78.4038998,120.022003 78.4133145,119.106117 Z M45.3967765,155.668109 L45.521967,142.173644 C45.5311835,141.233992 46.3099757,140.337444 47.2615767,140.172084 C48.1517346,140.015345 48.9174701,140.644653 48.9090216,141.583521 L48.7830632,155.077986 C48.7738467,155.957292 47.9950545,156.854625 47.1033605,157.010581 C46.1532956,157.17594 45.3875601,156.546632 45.3967765,155.668109 Z M18.0000695,186.565411 L18.12386,173.070946 C18.1315489,172.190856 18.911199,171.293523 19.8031064,171.137568 C20.7549868,170.972208 21.5200281,171.601516 21.5123392,172.480039 L21.3877797,185.976071 C21.379322,186.914155 20.599672,187.810704 19.6485604,187.976064 C18.756653,188.132803 17.9916117,187.503495 18.0000695,186.565411 Z M45.2095635,182.377236 L45.3899272,164.179005 L19.7051839,168.422798 C18.7835016,168.575103 17.9913315,167.958957 18.0000716,167.03743 L18.1915591,147.054607 C18.2002992,146.13385 19.0059766,145.251553 19.9284535,145.100017 C20.912111,144.937711 21.7034865,145.553857 21.6939518,146.476153 L21.51915,164.788997 L47.2054825,160.544436 C48.1271648,160.391361 48.9185403,161.009045 48.9090056,161.929803 L48.7119563,181.798012 C48.7016271,182.71877 47.8959496,183.600297 46.9750619,183.751834 C45.9914044,183.914139 45.2000289,183.297993 45.2095635,182.377236 Z M79.8180814,164.814311 C79.8085129,165.763888 78.9999929,166.671455 78.0128647,166.838701 L65.4337544,168.973268 C64.446626,169.140514 63.6524581,168.505613 63.6612289,167.555244 C63.6707973,166.606459 64.480115,165.698891 65.4672434,165.531646 L78.0471506,163.397079 C79.0342795,163.229833 79.8284471,163.865527 79.8180814,164.814311 Z M89.9247078,176.990383 C89.0589315,177.48025 88.0147423,177.248859 87.6539363,176.499743 L72.1934135,142.682726 L55.8726899,181.771415 C55.4967502,182.410641 54.8770867,182.919853 54.1992801,183.032066 C53.953167,183.073082 53.7683831,183.103263 53.5230664,183.027423 C52.6023326,182.833179 52.1817898,181.92 52.5601191,180.989796 L70.6418656,137.908659 C70.8943507,137.288007 71.5769359,136.769508 72.2539461,136.656521 C72.9938788,136.534248 73.6047809,136.838383 73.8453182,137.377004 L90.9322585,174.625405 C91.2930645,175.433337 90.8518133,176.488909 89.9247078,176.990383 Z M122.543607,143.327104 C122.543607,143.327104 122.557387,142.119062 122.136693,140.522171 C121.595222,138.427308 120.487153,136.768939 118.995676,135.689232 C116.574459,133.783413 113.073542,133.258546 108.496169,133.998586 C95.2633681,136.138789 94.0969363,145.803899 94.0020981,154.778919 C93.9696745,157.827459 93.9177971,162.718802 95.7553931,166.383659 C97.8402183,170.468104 101.892333,171.937428 108.099793,170.9338 C114.05435,169.970132 118.276688,167.334263 120.576317,163.056931 C122.364467,159.78169 122.39689,156.847653 122.39689,156.790786 C122.407428,155.868616 123.292587,155.037126 124.296092,154.874209 C125.299595,154.711293 126.043713,155.280733 126.034796,156.202134 C126.032364,156.373504 125.991835,160.056805 123.756242,164.151239 C121.649531,167.937516 117.278857,172.779676 108.063316,174.270518 C103.987694,174.930638 100.548382,174.683189 97.8710199,173.507422 C95.567338,172.386986 93.7694601,170.667907 92.4198357,168.245674 C90.2725966,164.05518 90.3309586,158.647421 90.3650029,155.36757 C90.4014791,151.858714 90.4565992,146.623093 92.6362626,141.790923 C93.9818337,138.930659 95.8834656,136.613707 98.2203826,134.741702 C100.93341,132.696022 104.391366,131.331979 108.531834,130.662637 C114.113522,129.75891 118.550665,130.53507 121.654395,132.904279 C126.187187,136.478455 126.186376,142.278136 126.181512,142.738453 L126.180701,142.796088 C126.170975,143.71749 125.410645,144.528999 124.407952,144.691147 C123.404448,144.853296 122.533069,144.305373 122.543607,143.327104 Z M159.179136,165.499671 C158.869129,165.781396 158.501242,165.900707 158.133355,165.961516 C157.580732,166.053115 157.091538,165.960746 156.78946,165.608204 L139.421093,147.087446 L133.340658,154.537008 L133.190015,168.48242 C133.1805,169.346841 132.436799,170.218958 131.455239,170.381374 C130.474473,170.543789 129.684785,169.927226 129.6943,169.062806 L129.852079,154.482356 C129.856043,154.136742 130.043951,153.702607 130.291323,153.374698 L153.877289,124.156837 C154.559941,123.297805 155.665978,122.998376 156.394616,123.509484 C157.124046,124.022133 157.235839,125.039731 156.552395,125.842572 L141.718005,144.176283 L159.572394,163.076523 C160.117088,163.734653 159.983095,164.791508 159.179136,165.499671 Z M129.694296,144.460053 L129.85898,128.726093 C129.867328,127.880149 130.639141,126.960382 131.578673,126.801438 C132.518205,126.641741 133.214885,127.312168 133.206537,128.158112 L133.041853,143.892073 C133.031229,144.795267 132.320888,145.591494 131.380597,145.750438 C130.441065,145.909382 129.685189,145.361741 129.694296,144.460053 Z M187.295071,148.973797 C187.28244,150.008136 187.25244,152.708309 185.574041,155.56655 C184.518529,157.289934 183.039864,158.623524 181.258835,159.779097 C179.356228,160.955388 176.784947,161.898416 173.854459,162.384125 C167.014549,163.518213 163.750119,161.021377 162.250928,158.746294 C160.633318,156.261735 160.602529,153.514755 160.603318,153.401193 C160.614371,152.480418 161.417255,151.54583 162.394611,151.383927 C163.310388,151.231232 164.155903,151.893423 164.14643,152.813431 C164.14564,152.870212 164.123535,154.879804 165.323519,156.63158 C166.942708,158.999508 169.738197,159.796746 173.890774,159.109233 C180.48595,158.015045 183.69275,154.84681 183.75196,149.56156 C183.807223,144.67838 181.580936,142.123228 177.008365,142.078724 C176.032588,142.067982 175.431017,141.308342 175.686014,140.349201 C175.879432,139.3985 176.740737,138.740913 177.776513,138.740913 C179.910432,138.730171 181.79567,139.221251 183.248282,140.184228 C184.520897,140.890157 185.544831,141.98281 186.200086,143.363973 C187.332965,145.642125 187.305334,148.055324 187.295071,148.973797 Z M186.270396,130.64995 C185.293204,130.812747 184.50703,130.25294 184.517291,129.333751 L184.456513,129.344501 L184.517291,129.333751 C184.457302,129.28614 184.480982,127.102201 183.221998,125.245393 C181.663858,122.863332 178.746489,121.914194 174.714584,122.583045 C166.651564,123.920746 164.891355,128.803124 164.85031,132.540547 C164.812422,135.931642 166.049304,139.914797 172.331593,139.619919 C173.246428,139.582291 173.908677,140.333308 173.77607,141.215638 C173.645041,142.040374 172.906226,142.794463 172.05138,142.937294 C171.989812,142.947277 171.867466,142.967242 171.806687,142.919632 C169.366864,143.094716 167.359595,142.739173 165.783299,141.853772 C164.39013,141.108898 163.30322,140.084505 162.587296,138.712248 C161.271481,136.462269 161.298318,133.991131 161.307791,133.128767 C161.311737,132.724845 161.322788,131.805656 161.517753,130.626145 C161.838221,129.137165 162.281036,127.744943 163.087733,126.406473 C164.083079,124.690961 165.500719,123.25036 167.28224,122.03706 C169.247675,120.792277 171.820106,119.791688 174.750894,119.306368 C181.53204,118.181379 184.795136,120.795348 186.354066,123.17664 C187.852217,125.567147 188.006136,128.123523 187.999822,128.641095 L187.999822,128.69792 C187.988771,129.618646 187.187599,130.497904 186.270396,130.64995 Z M115.966669,115.061144 C112.844286,112.062473 111.352749,106.840596 111.43281,99.1152064 C111.472841,95.1947562 111.87875,91.9619822 112.588891,89.0834435 C113.299033,86.1471483 114.377456,83.6675076 115.945052,81.6845656 C117.512647,79.6423273 119.446923,78.0590538 121.811126,76.8092226 C123.988787,75.6464099 126.596376,74.8732549 129.633893,74.3757863 C132.670609,73.876778 135.331839,73.8428947 137.491086,74.4674254 C139.837676,74.9464119 141.74393,76.0722611 143.273096,77.6624654 C146.023995,80.7797279 147.330592,85.8606804 147.252932,93.2395366 C147.213702,96.8126829 146.806992,100.045457 146.096049,102.86701 C145.324261,105.640049 144.120943,108.196698 142.490099,110.305932 C139.477401,114.426602 134.996383,117.003271 129.172741,117.959705 C123.161756,118.94463 118.842462,117.983577 115.966669,115.061144 Z M118.635524,83.3902765 C116.24713,86.6366489 115.018858,91.5827014 114.945098,98.5122231 C114.872941,105.38361 116.126066,109.866878 118.576997,112.441641 C120.783395,114.653825 124.307059,115.281069 129.20892,114.483245 C133.98651,113.706839 137.475699,111.766206 139.864895,108.519833 C142.318231,105.090641 143.673178,100.124701 143.740524,93.8262481 C143.811077,87.2967856 142.743155,82.89766 140.478229,80.2945952 C138.213303,77.803976 134.68964,77.0053863 129.60017,77.8338081 C124.324697,78.6912971 120.835509,80.4590557 118.635524,83.3902765 Z" id="Letters" stroke="#455A64" fill="#455A64" fill-rule="nonzero"></path>
                    <path d="M152.276913,251.053619 C155.345688,250.524802 158.198875,252.534304 158.727974,255.4702 C159.257863,258.405323 157.279664,261.247035 154.210889,261.776624 L95.3884858,271.915229 C92.3197107,272.444817 89.4665235,270.435315 88.9374248,267.500192 C88.4075356,264.564296 90.385735,261.722584 93.4545101,261.193768 L152.276913,251.053619 Z M156.209302,231.427591 C159.125295,230.932513 162.089013,232.581751 162.827158,235.343766 C163.666321,238.481304 161.544949,241.496989 158.374423,242.034984 L85.6448225,254.391245 C82.2778289,254.96296 79.0309432,252.518991 79.0571922,248.956881 C79.0770775,246.345842 81.180951,244.174702 83.8495702,243.721008 L156.209302,231.427591 Z M150.384229,212.514877 C148.486763,198.986795 149.027086,186.380239 150.89603,174.517875 C151.221649,172.455053 152.879852,170.817375 155.027673,170.455131 L155.134628,170.436943 C159.027801,169.779902 162.420264,172.965833 161.851421,176.707255 C159.981684,188.970513 159.656065,201.99994 162.22616,215.944072 C162.757768,218.826112 160.762061,221.552796 157.683333,222.071912 L78.2995334,235.46131 C75.2215975,235.980425 72.3702489,234.070685 71.8386414,231.189403 C69.4222441,218.075857 63.945341,204.997928 58.0263561,194.113927 C56.2231691,190.799164 58.302063,186.769008 62.1492844,186.120302 L62.3291277,186.089988 C64.4785329,185.726987 66.6239768,186.725811 67.6665928,188.560525 C73.67748,199.138362 78.6932871,210.79308 81.741117,224.092295 L150.384229,212.514877 Z M12.5884928,104.683216 C13.7963599,111.24739 19.5566532,121.550075 23.6893295,128.325606 C25.7153528,131.648222 23.6624529,135.884444 19.7076366,136.551846 L19.2594293,136.627601 C17.2555397,136.966226 15.2374213,136.113981 14.1307368,134.477673 C8.08349611,125.53176 3.50577439,116.476003 1.67500191,106.527851 L1.49081798,105.524854 C-3.37543219,77.6113949 4.04646886,53.4978083 18.2918708,35.333265 C32.4716621,17.1808424 53.5619081,5.09336832 76.1738458,1.27228413 C76.3698869,1.23895191 76.5659281,1.20561969 76.7082161,1.24652741 L77.034688,1.19122623 C100.857654,-2.64046366 126.320095,2.80783877 146.588233,17.0119086 C164.703868,29.7713299 178.632284,49.4380958 183.482725,75.8053948 C185.034455,84.2369307 182.709627,99.5409637 181.557884,106.136955 C181.22746,108.031589 179.689959,109.51866 177.715317,109.851982 C173.655366,110.538323 170.194605,107.039955 171.093391,103.184024 C173.181863,94.2176574 174.053772,85.7171842 172.570024,77.6492723 C168.260278,54.2265718 155.957108,36.8029127 140.016897,25.6131358 C122.209552,13.0597683 99.8410857,8.31523013 78.829098,11.6726935 L78.1097532,11.7939016 C58.2431839,15.1506074 39.6469306,25.7843422 27.0939656,41.7891094 C14.5939633,57.7203942 8.13724936,79.0234688 12.4153757,103.743853 L12.5884928,104.683216 Z" id="Bulb" stroke="url(#linearGradient-1)" stroke-width="2.5"></path>
                </g>
            </g>
        </g>
    </g>
</svg>